<?xml version="1.0" encoding="UTF-8"?>
<svg id="Layer_2" data-name="Layer 2" xmlns="http://www.w3.org/2000/svg" viewBox="0 0 95.01 190">
  <defs>
    <style>
      .cls-1 {
        fill: #eb0024;
      }

      .cls-2, .cls-3 {
        fill: #fff;
      }

      .cls-3 {
        stroke: #fff;
        stroke-linejoin: round;
        stroke-width: 6px;
      }
    </style>
  </defs>
  <g id="CLUB">
    <g>
      <path class="cls-3" d="M85.39,83.66c-2.66-2.81-11.23-7.69-22.03-.81-14.12,8.99-25.1,3.58-30.76,0-10.6-6.69-19-2.1-21.84,.73"/>
      <g>
        <g>
          <path class="cls-2" d="M40.98,29.68c-.51,0-1.01-.16-1.43-.45l-5.88-4.1-5.88,4.1c-.43,.3-.93,.45-1.43,.45s-1.04-.16-1.48-.49c-.86-.63-1.23-1.75-.9-2.77l2.22-7.05-5.56-4.03c-.88-.64-1.24-1.76-.91-2.8s1.29-1.73,2.38-1.73h6.88l2.32-6.65c.35-1,1.3-1.68,2.36-1.68h0c1.06,0,2.01,.67,2.36,1.68l2.32,6.65h17.87l2.32-6.65c.35-1,1.3-1.68,2.36-1.68s2.01,.67,2.36,1.68l2.32,6.65h6.88c1.08,0,2.04,.7,2.38,1.73,.33,1.03-.03,2.16-.91,2.8l-5.56,4.03,2.22,7.05c.32,1.02-.04,2.13-.9,2.77-.44,.32-.96,.49-1.48,.49s-1-.15-1.43-.45l-5.88-4.1-5.88,4.1c-.42,.29-.92,.45-1.43,.45h-12.63Z"/>
          <path class="cls-2" d="M60.92,5l2.91,8.33h8.66l-7.02,5.09,2.76,8.76-7.31-5.09-7.31,5.09h-12.63l-7.31-5.09-7.31,5.09,2.76-8.76-7.02-5.09h8.66l2.91-8.33,2.91,8.33h21.42l2.91-8.33m0-5c-2.13,0-4.02,1.34-4.72,3.35l-1.74,4.98h-14.32l-1.74-4.98c-.7-2.01-2.59-3.35-4.72-3.35s-4.02,1.34-4.72,3.35l-1.74,4.98h-5.11c-2.17,0-4.09,1.4-4.76,3.46s.07,4.32,1.82,5.59l4.1,2.98-1.68,5.33c-.64,2.04,.08,4.26,1.81,5.53,.88,.65,1.92,.97,2.96,.97s2-.3,2.86-.9l4.45-3.1,4.45,3.1c.84,.58,1.84,.9,2.86,.9h12.63c1.02,0,2.02-.31,2.86-.9l4.45-3.1,4.45,3.1c.86,.6,1.86,.9,2.86,.9s2.08-.32,2.96-.97c1.72-1.27,2.45-3.49,1.81-5.53l-1.68-5.33,4.1-2.98c1.75-1.27,2.49-3.53,1.82-5.59s-2.59-3.46-4.76-3.46h-5.11l-1.74-4.98c-.7-2.01-2.59-3.35-4.72-3.35h0Z"/>
        </g>
        <g>
          <path class="cls-2" d="M10.76,149.12c-1.38,0-2.5-1.12-2.5-2.5v-29.68c0-.64,.25-1.26,.69-1.73,2.57-2.69,7.62-4.14,11.07-4.14,.16,0,.31,0,.46,0h.32c1.42,0,4.94,0,11.29,2.53l-.32-.46c-.6-.87-.59-2.01,.02-2.87l1.36-1.91c-.15,0-.3,0-.45,0-4.77,0-9.14-2.28-11.87-6.07-1.17,.29-2.36,.44-3.57,.44-8.14,0-14.76-6.56-14.76-14.62,0-4.36,1.94-8.44,5.27-11.2-.04-.38-.06-.75-.06-1.13,0-3.42,1.73-6.6,4.62-8.69-.48-2.27-.24-4.53,.73-6.54,1.18-2.46,3.31-4.29,5.94-5.21-.75-4.78,1.08-9.64,4.98-12.74,2.39-1.89,5.24-2.89,8.26-2.89,.26,0,.52,0,.79,.02,3.31-4.42,8.43-7.01,13.99-7.01s10.81,2.68,14.1,7.11c.51-.06,1.02-.09,1.54-.09,1.12,0,2.22,.14,3.26,.42,7.06,1.87,10.78,7.81,9.74,15.11,1.27,.66,2.48,1.55,3.55,2.64,2.48,2.52,3.86,5.67,3.83,8.52,2.54,1.63,5.24,4.82,4.48,10.97,3.31,2.72,5.03,6.23,5,10.24,0,.97-.12,1.98-.33,3-1.18,5.72-6.5,11.5-14.39,11.5-.85,0-1.71-.07-2.57-.21-2.95,3.62-7.85,5.86-12.83,5.86l1.95,2.85c.58,.85,.58,1.97,0,2.82,6.16-2.41,9.61-2.41,11.02-2.41h.32c.17,0,.34-.01,.53-.01,3.02,0,8.46,1.14,11.1,4.28,.38,.45,.59,1.02,.59,1.61v29.76c0,.66-.26,1.3-.73,1.77-.47,.47-1.1,.73-1.77,.73,0,0-74.63-.09-74.63-.09Z"/>
          <path class="cls-2" d="M47,35.25c5.48,0,10.3,2.95,12.94,7.36,.86-.22,1.77-.34,2.7-.34,.88,0,1.76,.11,2.62,.33,7.03,1.87,9.18,7.95,7.52,14.23,1.57,.45,3.22,1.42,4.64,2.86,2.52,2.56,3.59,5.82,2.91,8.16,2.89,1.23,5.81,4.08,4.48,10.67,3.31,2.25,5.24,5.27,5.21,9.13,0,.8-.1,1.64-.28,2.51-1.02,4.93-5.6,9.51-11.94,9.51-1.16,0-2.39-.15-3.66-.49-.23,.38-.49,.74-.76,1.09-2.5,3.14-6.76,5.05-10.99,5.05-.41,0-.83-.02-1.24-.06-1.49-.14-3.39-.89-4.61-1.59l5.73,8.4-5.74,7.95c11.1-6.26,16.65-6.45,18.82-6.45,.14,0,.27,0,.38,0,.15,0,.31-.01,.47-.01,2.89,0,7.3,1.15,9.18,3.39v29.76l-74.63-.09v-29.68c2.02-2.11,6.45-3.37,9.26-3.37,.14,0,.27,0,.4,0,.11,0,.24,0,.38,0,2.16,0,7.66,.19,18.76,6.45l-5.74-8.29,5.74-8.06c-1.95,1.34-4.32,2.21-6.87,2.21-4.69,0-8.76-2.66-10.77-6.55-1.44,.59-3.01,.92-4.66,.92-6.77,0-12.26-5.43-12.26-12.12,0-4.24,2.2-7.97,5.53-10.14-.21-.7-.33-1.44-.33-2.2,0-3.25,2.05-6.09,5.08-7.55-.88-2.13-.98-4.51,.02-6.59,1.25-2.6,3.84-4.15,6.76-4.4-1.68-4.4-.42-9.59,3.46-12.67,2-1.58,4.36-2.35,6.71-2.35,.67,0,1.34,.06,1.99,.19,2.65-4.31,7.37-7.18,12.78-7.18m0-5c-5.92,0-11.4,2.57-15.18,7-3.4,.09-6.73,1.3-9.41,3.42-4.09,3.24-6.26,8.13-6.09,13.13-2.4,1.26-4.34,3.22-5.53,5.69-.99,2.05-1.37,4.3-1.16,6.58-2.8,2.52-4.43,6-4.43,9.73,0,.03,0,.05,0,.08-3.3,3.19-5.2,7.58-5.2,12.26,0,9.44,7.74,17.12,17.26,17.12,.86,0,1.72-.06,2.56-.19,1.36,1.55,2.98,2.83,4.77,3.79-1.82-.28-3.06-.28-3.79-.28h-.23s-.05,0-.05,0c-.16,0-.33,0-.5,0-3.29,0-9.43,1.31-12.87,4.91-.89,.93-1.38,2.17-1.38,3.45v29.68c0,2.76,2.23,5,4.99,5l74.63,.09h0c1.33,0,2.6-.53,3.53-1.46,.94-.94,1.47-2.21,1.47-3.54v-29.76c0-1.18-.42-2.32-1.17-3.22-2.99-3.55-8.84-5.17-13.01-5.17-.2,0-.39,0-.57,.01h-.05s-.23,0-.23,0c-1.25,0-3.99,0-8.54,1.4-.02-.05-.05-.1-.08-.16,3.63-.83,7-2.67,9.48-5.23,.53,.05,1.06,.07,1.58,.07,9.22,0,15.45-6.79,16.83-13.5,.24-1.18,.37-2.36,.38-3.49,.03-4.38-1.66-8.24-4.92-11.32,.16-3.48-.56-8.12-4.65-11.29-.35-3.1-1.92-6.31-4.47-8.9-.84-.85-1.74-1.6-2.7-2.23,.42-7.76-4.03-14.14-11.73-16.18-1.25-.33-2.56-.5-3.9-.5-.13,0-.27,0-.4,0-3.78-4.4-9.36-7.02-15.23-7.02h0Z"/>
        </g>
        <g>
          <path class="cls-2" d="M53.09,187.5c-5.59,0-10.71-3-12.77-7.39-.13,.02-.27,.03-.41,.03h-4.88c-1.38,0-2.5-1.12-2.5-2.5v-24.8c0-1.38,1.12-2.5,2.5-2.5h5.9c6.92,0,8.37,3.88,8.37,7.13v2.71c0,1.7-.42,3.13-1.19,4.23,.8,1.1,1.19,2.6,1.19,4.5v5.24c0,.98,.45,3.21,4.51,3.27h0c.38,0,.9-.03,1.17-.05,.07,0,.14,0,.21,0,.62,0,1.23,.23,1.69,.66,.51,.47,.81,1.14,.81,1.84v4.99c0,1.25-.92,2.3-2.16,2.48-.83,.11-1.65,.17-2.45,.17Z"/>
          <path class="cls-2" d="M40.93,152.84c4.11,0,5.87,1.39,5.87,4.63v2.71c0,2.67-1.3,4.13-3.9,4.28v.15c2.95,.18,3.9,1.35,3.9,4.31v5.24s-.18,5.66,6.97,5.77c.03,0,.06,0,.09,0,.4,0,1.01-.03,1.34-.06v4.99c-.66,.09-1.36,.15-2.11,.15-4.56,0-9.23-2.46-10.76-6.55-.71-1.9-.56-4.3-.56-4.3v-5.61c0-1.43-.7-2.17-1.79-2.17h-.07v11.27h-4.88v-24.8h5.9m-1.01,9.37h.78c1.04,0,1.37-.47,1.37-1.84h0v-1.43h0c0-1.38-.33-1.85-1.37-1.85h-.78v5.11h0m1.01-14.36h-5.9c-2.76,0-5,2.24-5,5v24.8c0,2.76,2.24,5,5,5h3.85c2.83,4.43,8.31,7.36,14.22,7.36,.91,0,1.85-.07,2.79-.2,2.47-.34,4.31-2.46,4.31-4.95v-4.99c0-1.4-.59-2.73-1.62-3.68-.93-.85-2.14-1.32-3.38-1.32-.14,0-.28,0-.42,.02-.22,.02-.69,.04-.92,.04-1.92-.03-2.04-.54-2.06-.8v-5.21c0-1.84-.31-3.33-.83-4.52,.54-1.23,.83-2.65,.83-4.21v-2.71c0-4.01-1.79-6.27-3.29-7.46-1.85-1.46-4.33-2.18-7.58-2.18h0Zm10.87,26.4s0-.02,0-.02,0,.02,0,.02h0Z"/>
        </g>
        <g>
          <path class="cls-2" d="M10.76,180.07c-1.38,0-2.5-1.12-2.5-2.5v-24.61c0-1.38,1.12-2.5,2.5-2.5h9.27c1.38,0,2.5,1.12,2.5,2.5v4.18c0,1.38-1.12,2.5-2.5,2.5h-1.89v.06h1.46c1.38,0,2.5,1.12,2.5,2.5v4.18c0,1.38-1.12,2.5-2.5,2.5h-1.46v8.7c0,1.38-1.12,2.5-2.5,2.5h-4.88Z"/>
          <path class="cls-2" d="M20.03,152.95v4.18h-4.39v5.06h3.96v4.18h-3.96v11.2h-4.88v-24.61h9.27m0-5H10.76c-2.76,0-5,2.24-5,5v24.61c0,2.76,2.24,5,5,5h4.88c2.76,0,5-2.24,5-5v-6.3c2.26-.48,3.96-2.49,3.96-4.89v-4.18c0-.78-.18-1.51-.49-2.17,.58-.82,.92-1.81,.92-2.89v-4.18c0-2.76-2.24-5-5-5h0Z"/>
        </g>
        <g>
          <path class="cls-2" d="M27.28,180.33c-3.67,0-5.67-1.54-6.71-2.83-1.61-2.01-1.83-4.64-1.83-7.17v-10.22c0-2.54,.22-5.16,1.83-7.17,1.03-1.29,3.04-2.83,6.71-2.83s5.68,1.54,6.71,2.83c1.61,2.01,1.83,4.63,1.83,7.17v10.22c0,2.54-.22,5.16-1.83,7.17-1.03,1.29-3.03,2.83-6.71,2.83Z"/>
          <path class="cls-2" d="M27.28,152.6c2.19,0,3.78,.67,4.76,1.89,.98,1.22,1.28,2.96,1.28,5.61v10.22c0,2.65-.3,4.39-1.28,5.61-.98,1.22-2.56,1.89-4.76,1.89s-3.78-.67-4.76-1.89-1.28-2.96-1.28-5.61v-10.22c0-2.65,.3-4.39,1.28-5.61s2.56-1.89,4.76-1.89m0,20.83c.4,0,.7-.15,.88-.43,.21-.33,.24-.64,.24-1.62v-12.36c0-.98-.03-1.28-.24-1.62-.18-.27-.49-.43-.88-.43s-.7,.15-.88,.43c-.21,.34-.24,.64-.24,1.62v12.36c0,.98,.03,1.28,.24,1.62,.18,.27,.49,.43,.88,.43m0-25.83c-4.67,0-7.29,2.05-8.66,3.77-2.09,2.62-2.38,5.88-2.38,8.73v10.22c0,2.85,.28,6.12,2.38,8.73,1.37,1.72,3.99,3.77,8.66,3.77s7.29-2.05,8.66-3.77c2.09-2.62,2.38-5.88,2.38-8.73v-10.22c0-2.85-.28-6.12-2.38-8.73-1.37-1.72-3.99-3.77-8.66-3.77h0Z"/>
        </g>
        <g>
          <path class="cls-2" d="M77.45,180.07c-1.38,0-2.5-1.12-2.5-2.5v-17.93h-.56c-1.38,0-2.5-1.12-2.5-2.5v-4.18c0-1.38,1.12-2.5,2.5-2.5h11c1.38,0,2.5,1.12,2.5,2.5v4.18c0,1.38-1.12,2.5-2.5,2.5h-.56v17.93c0,1.38-1.12,2.5-2.5,2.5h-4.88Z"/>
          <path class="cls-2" d="M85.39,152.95v4.18h-3.06v20.43h-4.88v-20.43h-3.06v-4.18h11m0-5h-11c-2.76,0-5,2.24-5,5v4.18c0,2.07,1.26,3.85,3.06,4.61v15.82c0,2.76,2.24,5,5,5h4.88c2.76,0,5-2.24,5-5v-15.82c1.8-.76,3.06-2.54,3.06-4.61v-4.18c0-2.76-2.24-5-5-5h0Z"/>
        </g>
        <g>
          <path class="cls-2" d="M54.4,180.3c-2.7,0-4.66-.68-6.16-2.14-1.91-1.85-2.16-4.32-2.16-6.49v-12.9c0-2.17,.26-4.64,2.16-6.49,1.48-1.44,3.5-2.14,6.16-2.14s4.73,.72,6.19,2.14c1.9,1.85,2.16,4.32,2.16,6.49v7.59c0,.46-.12,.89-.34,1.26,.22,.37,.34,.8,.34,1.26v3.51c-.06,1.81-.36,4.01-2.16,5.76-1.48,1.44-3.51,2.14-6.19,2.14Z"/>
          <path class="cls-2" d="M54.4,152.65c1.95,0,3.44,.46,4.45,1.43,1.1,1.07,1.4,2.56,1.4,4.69v7.59h-6.83v5.37c0,.76,.03,1.04,.21,1.31,.18,.24,.43,.37,.79,.37s.61-.12,.79-.37c.18-.27,.21-.55,.21-1.31v-2.84h4.82v3.51c-.06,1.77-.4,2.99-1.4,3.96-1.01,.98-2.41,1.43-4.45,1.43s-3.41-.46-4.42-1.43c-1.1-1.07-1.4-2.56-1.4-4.69v-12.9c0-2.13,.3-3.63,1.4-4.69,1.01-.98,2.44-1.43,4.42-1.43m-.98,9.54h2.01v-3.38c0-.76-.03-1.07-.21-1.34-.18-.24-.43-.37-.79-.37s-.61,.12-.79,.37c-.18,.27-.21,.58-.21,1.34v3.38m.98-14.54c-3.3,0-5.96,.96-7.9,2.84-2.59,2.52-2.92,5.75-2.92,8.28v12.9c0,2.53,.33,5.77,2.92,8.28,1.98,1.92,4.56,2.85,7.91,2.85s5.96-.93,7.93-2.84c2.47-2.39,2.85-5.36,2.92-7.38,0-.06,0-.12,0-.17v-3.51c0-.44-.06-.86-.16-1.26,.11-.4,.16-.83,.16-1.26v-7.59c0-2.53-.33-5.77-2.92-8.28-1.95-1.89-4.62-2.85-7.94-2.85h0Z"/>
        </g>
        <g>
          <path class="cls-2" d="M68.05,180.3c-3.25,0-5.18-1.27-6.21-2.34-2-2.09-2.14-4.16-2.14-7.32v-1.74c0-1.19,.83-2.19,1.95-2.44-1.38-1.37-2.19-3.08-2.19-5.89v-2.28c0-4.91,3.28-8.08,8.35-8.08,3.26,0,5.18,1.27,6.21,2.34,2,2.09,2.14,4.16,2.14,7.32v1.2c0,1.19-.83,2.19-1.95,2.44,1.38,1.37,2.19,3.08,2.19,5.89v2.82c0,4.91-3.28,8.08-8.35,8.08Z"/>
          <path class="cls-2" d="M67.81,152.71c1.92,0,3.41,.55,4.42,1.58,1.28,1.34,1.43,2.56,1.43,5.58v1.2h-4.88v-.9c0-2.13-.03-2.35-.18-2.65-.12-.24-.4-.43-.79-.43-.64,0-.98,.43-.98,1.22v1.85c0,1.1,.3,1.52,2.23,2.71l.64,.4c2.99,1.86,4.21,2.83,4.21,6.13v2.82c0,3.44-2.1,5.58-5.85,5.58-1.92,0-3.41-.55-4.42-1.58-1.28-1.34-1.43-2.56-1.43-5.58v-1.74h4.88v1.74c0,2.13,0,2.01,.15,2.35,.12,.24,.4,.43,.79,.43,.55,0,.98-.37,.98-1.22v-2.39c0-1.1-.27-1.52-2.19-2.71l-.64-.4c-2.99-1.86-4.21-2.84-4.21-6.13v-2.28c0-3.44,2.1-5.58,5.85-5.58m0-5c-6.39,0-10.85,4.35-10.85,10.58v2.28c0,2.26,.47,3.99,1.21,5.38-.6,.83-.96,1.85-.96,2.95v1.74c0,2.85,0,6.08,2.82,9.03,1.4,1.45,3.91,3.13,8.04,3.13,6.39,0,10.85-4.35,10.85-10.58v-2.82c0-2.26-.47-3.99-1.21-5.38,.6-.83,.96-1.85,.96-2.95v-1.2c0-2.85,0-6.08-2.81-9.03-1.4-1.45-3.91-3.13-8.04-3.13h0Z"/>
        </g>
        <path class="cls-2" d="M58.09,112.68h-4.97s-2.05-8.71-2.05-8.71l22.26-.71,3.17-.1c-.37,4.88-13.64,9.6-18.41,9.51Z"/>
      </g>
      <g>
        <g>
          <g>
            <polygon class="cls-1" points="33.68 5 30.77 13.33 22.11 13.33 29.13 18.42 26.37 27.18 33.68 22.09 40.98 27.18 38.22 18.42 45.24 13.33 36.59 13.33 33.68 5"/>
            <polygon class="cls-1" points="60.92 5 58.01 13.33 49.35 13.33 56.37 18.42 53.61 27.18 60.92 22.09 68.22 27.18 65.46 18.42 72.48 13.33 63.83 13.33 60.92 5"/>
          </g>
          <g>
            <path class="cls-1" d="M63.36,127.62c-14.12,8.99-25.1,3.57-30.76,0-10.6-6.69-19-2.89-21.84-.1v7.68c2.58-2.64,6.13-4.07,10.28-4.07,0,0,4.1-.39,11.04,3.09,4.66,2.34,15.19,9.85,31.8,0,5.76-3.41,11.04-3.09,11.04-3.09,4.25,0,7.87,1.5,10.47,4.27v-7.7c-2.66-2.8-11.22-6.96-22.03-.08Z"/>
            <path class="cls-1" d="M63.36,137.45c-14.12,8.99-25.1,3.58-30.76,0-10.6-6.69-19-2.1-21.84,.73v8.43c2.58-2.73,6.13-5.66,10.28-5.66,0,0,4.1-.39,11.04,3.09,4.66,2.34,15.19,9.85,31.8,0,5.75-3.41,11.04-3.09,11.04-3.09,4.25,0,7.87,2.97,10.47,5.76v-8.45c-2.66-2.81-11.22-7.69-22.03-.81Z"/>
            <path class="cls-1" d="M84.8,78.52c1.34-6.59-1.58-9.44-4.48-10.67,.69-2.34-.39-5.6-2.91-8.16-1.42-1.44-3.06-2.4-4.64-2.86,1.66-6.28-.48-12.36-7.52-14.23-1.76-.47-3.65-.42-5.32,0-2.63-4.4-7.46-7.36-12.94-7.36s-10.13,2.87-12.78,7.18c-2.96-.56-6.14,.13-8.71,2.16-3.88,3.07-5.14,8.26-3.46,12.67-2.92,.25-5.51,1.81-6.76,4.4-1,2.08-.9,4.46-.02,6.59-3.03,1.47-5.08,4.3-5.08,7.55,0,.76,.11,1.5,.33,2.2-3.33,2.17-5.53,5.9-5.53,10.14,0,6.69,5.49,12.12,12.26,12.12,1.65,0,3.23-.33,4.66-.92,2.01,3.89,6.08,6.55,10.77,6.55,2.55,0,4.92-.88,6.87-2.22v16.35c-11.82-6.66-17.29-6.45-19.14-6.45-2.76-.13-7.54,1.14-9.66,3.36v7.66c2.16-2.24,7.46-3.82,11.49-3.64,2.14,.09,6.69,1.05,11.45,3.78,6.96,3.98,12.32,4.75,12.33,4.75v-36.34c-1.99,2.55-5.78,4.27-10.12,4.27-5.6,0-10.27-2.86-11.36-6.66-.69,.8-1.62,1.47-2.7,1.87-3.12,1.15-6.48-.22-7.5-3.07-1.02-2.84,.68-6.08,3.8-7.24,.37-.14,.75-.24,1.13-.31-2.05-1.9-2.93-4.42-2.01-6.42,.95-2.06,3.52-2.98,6.36-2.53-.98-1.13-1.52-2.48-1.52-4.01,0-3.72,3.46-6.74,7.73-6.74,.32,0,.63,.02,.93,.05-1.31-1.41-2.1-3.31-2.1-5.4,0-4.34,3.46-7.87,7.72-7.87,1.16,0,2.26,.26,3.25,.73,.54-3.59,3.81-6.34,7.76-6.34s7.3,2.83,7.78,6.49c1.13-.68,2.44-.94,3.83-.94,4.25,0,7.7,3.63,7.7,8.12,0,2.04-.66,3.85-1.84,5.27,.26-.02,.53-.04,.8-.04,4.21,0,7.63,2.96,7.63,6.61,0,1.21-.38,2.34-1.03,3.32,2.43-.03,4.64,1.34,5.45,3.6,.65,1.81,.24,3.78-.91,5.29,.08,.01,.16,.02,.24,.04,3.14,.56,5.25,3.54,4.7,6.66-.54,3.12-3.53,5.19-6.67,4.63-1.66-.3-3.05-1.28-3.89-2.59-.69,4.04-5.4,7.17-11.09,7.17-4.02,0-8-1.56-9.97-3.89v36.28s5.37-.76,12.33-4.75c4.76-2.73,9.32-3.68,11.45-3.78,4.17-.19,9.5,1.29,11.49,3.66v-7.66c-1.99-2.37-6.8-3.51-9.66-3.37-1.85,0-7.37-.22-19.19,6.45v-16.35c1.23,.7,3.13,1.45,4.62,1.59,5.08,.46,10.47-1.97,12.99-6.08,8.19,2.16,14.39-3.18,15.59-9.02,.18-.87,.27-1.71,.28-2.51,.03-3.86-1.91-6.88-5.21-9.13Z"/>
          </g>
        </g>
        <g>
          <path class="cls-1" d="M42.07,158.94v1.42h0c0,1.38-.33,1.85-1.37,1.85h-.78v-5.11h0s.78,0,.78,0c1.04,0,1.37,.47,1.37,1.84h0Zm11.7,20.99c-7.15-.11-6.98-5.77-6.98-5.77v-5.24c0-2.96-.94-4.13-3.9-4.31v-.14c2.6-.14,3.9-1.6,3.9-4.28v-2.71c0-3.24-1.76-4.63-5.87-4.63h-5.9v24.8h4.88v-11.28h.07c1.09,0,1.79,.75,1.79,2.17v5.61s-.15,2.39,.56,4.3c1.53,4.1,6.2,6.55,10.76,6.55,.74,0,1.45-.06,2.11-.15v-4.99c-.35,.03-1.04,.06-1.43,.06"/>
          <polygon class="cls-1" points="10.76 177.57 15.64 177.57 15.64 166.37 19.6 166.37 19.6 162.19 15.64 162.19 15.64 157.13 20.03 157.13 20.03 152.95 10.76 152.95 10.76 177.57"/>
          <path class="cls-1" d="M28.4,171.39c0,.98-.03,1.28-.24,1.62-.18,.27-.49,.43-.88,.43s-.7-.15-.88-.43c-.21-.34-.24-.64-.24-1.62v-12.36c0-.98,.03-1.28,.24-1.62,.18-.27,.49-.43,.88-.43s.7,.15,.88,.43c.21,.34,.24,.64,.24,1.62v12.36Zm-1.13-18.79c-2.2,0-3.78,.67-4.76,1.89-.98,1.22-1.28,2.96-1.28,5.61v10.22c0,2.65,.3,4.39,1.28,5.61,.98,1.22,2.56,1.89,4.76,1.89s3.78-.67,4.76-1.89c.98-1.22,1.28-2.96,1.28-5.61v-10.22c0-2.65-.3-4.39-1.28-5.61-.98-1.22-2.56-1.89-4.76-1.89"/>
          <polygon class="cls-1" points="74.39 152.95 74.39 157.13 77.45 157.13 77.45 177.57 82.33 177.57 82.33 157.13 85.39 157.13 85.39 152.95 74.39 152.95"/>
          <path class="cls-1" d="M55.44,162.19h-2.01v-3.38c0-.76,.03-1.07,.21-1.34,.18-.24,.43-.37,.79-.37s.61,.12,.79,.37c.18,.27,.21,.58,.21,1.34v3.38Zm-1.04-9.54c-1.98,0-3.41,.46-4.42,1.43-1.1,1.07-1.4,2.56-1.4,4.69v12.9c0,2.13,.3,3.63,1.4,4.69,1.01,.98,2.38,1.43,4.42,1.43s3.44-.46,4.45-1.43c1.01-.98,1.34-2.2,1.4-3.96v-3.51h-4.82v2.84c0,.76-.03,1.04-.21,1.31-.18,.24-.43,.37-.79,.37s-.61-.12-.79-.37c-.18-.27-.21-.55-.21-1.31v-5.37h6.83v-7.59c0-2.13-.3-3.63-1.4-4.69-1.01-.98-2.5-1.43-4.45-1.43"/>
          <path class="cls-1" d="M69.7,163.28l-.64-.4c-1.92-1.19-2.23-1.62-2.23-2.71v-1.85c0-.79,.34-1.22,.98-1.22,.4,0,.67,.18,.79,.43,.15,.3,.18,.52,.18,2.65v.9h4.88v-1.2c0-3.02-.15-4.24-1.43-5.58-1.01-1.04-2.5-1.59-4.42-1.59-3.75,0-5.85,2.13-5.85,5.58v2.28c0,3.29,1.22,4.27,4.21,6.13l.64,.4c1.92,1.19,2.19,1.62,2.19,2.71v2.39c0,.85-.43,1.22-.98,1.22-.4,0-.67-.18-.79-.43-.15-.34-.15-.21-.15-2.35v-1.74h-4.88v1.74c0,3.02,.15,4.24,1.43,5.58,1.01,1.04,2.5,1.59,4.42,1.59,3.75,0,5.85-2.13,5.85-5.58v-2.82c0-3.29-1.22-4.27-4.21-6.13"/>
        </g>
      </g>
    </g>
  </g>
</svg>