<?xml version="1.0" encoding="UTF-8"?>
<svg id="Layer_2" data-name="Layer 2" xmlns="http://www.w3.org/2000/svg" viewBox="0 0 84.25 191.12">
  <defs>
    <style>
      .cls-1 {
        fill: #fff;
      }

      .cls-2 {
        fill: #131f53;
      }
    </style>
  </defs>
  <g id="CLUB">
    <g>
      <g>
        <path class="cls-1" d="M34.51,188.12c-1.67,0-3.38-.14-5.07-.42-.27-.04-.54-.09-.82-.15l-.2-.03c-.17-.03-.33-.06-.5-.09-.12-.02-.23-.06-.34-.09-9.75-2.17-17.9-8.88-21.92-18.04-.05-.09-.1-.19-.15-.29-1.68-3.82-2.03-6.58-2.28-8.61l-.05-.39c-.08-.73-.12-1.39-.15-2.06-.13-3.22,.23-6.42,1.07-9.52,.17-.66,.38-1.33,.6-1.97,2.1-6.14,6.21-11.63,11.54-15.42,.37-.26,.81-.52,1.25-.76,.96-4.07,4.28-4.74,6.56-5.2,2.2-.44,4.69-.95,7.51-3.77,1.95-1.95,5.59-9.14,5.59-17.69s-6.29-13.2-13.58-18.52c-8.87-6.47-18.92-13.81-18.92-29.79,0-9.74,4.56-15.42,8.58-20.43,3.2-3.99,5.97-7.43,5.97-12.45,0-4-1.42-6.74-4.34-8.37-2.2-1.23-4.49-1.35-4.51-1.36-1.14-.04-2.17-.72-2.64-1.76-.47-1.04-.31-2.26,.42-3.14,.41-.49,4.24-4.8,13.95-4.8,10.76,0,16.22,6.54,16.22,19.44,0,4.83-.45,9.03-.84,12.73-1.08,10.14-1.73,16.27,7.1,25.09,.67,.67,2.6,2.6,4.75,2.85,.36-.66,.82-2.1,1.18-3.2,2.06-6.39,5.51-17.1,21.7-22.2,.3-.09,.6-.14,.9-.14,1.02,0,2,.53,2.56,1.44,.15,.25,1.53,2.58,2.88,7.3,.18,.63,.15,1.28-.07,1.86,.47,.42,.8,.97,.94,1.6,1.21,5.46,1.82,11.61,1.82,18.28,0,1.66-1.34,3-3,3-17.06,0-24.55,14.88-26.44,19.44-2.94,7.09-2.57,12.48-1.54,13.52,1.05,1.05,1.17,2.7,.3,3.9-.02,.03-1.3,1.79-2.82,4.28,2.01-.35,4.57-1.26,5.51-2.2,.66-.66,1.52-1.02,2.42-1.02,1.22,0,2.33,.67,2.91,1.74,.6,1.11,.52,2.48-.2,3.57-3.82,5.78-8.84,6.7-12.17,7.31q-3.23,.59-3.23,2.52c0,2.28,.54,2.47,1.73,2.88l.3,.1c6.68,2.39,12.42,7.04,16.16,13.09,.75,1.24,1.47,2.67,2.34,4.65,.01,.03,.02,.06,.04,.08,.09,.19,.17,.39,.25,.58,1.2,3.16,1.88,6.49,2.02,9.9,.17,4-.42,7.92-1.73,11.67-.01,.04-.85,2.16-.86,2.2-4.02,9.17-12.23,15.93-21.97,18.09-1.47,.33-3.78,.76-6.75,.76h0ZM27.54,19.88c.09,.83,.14,1.68,.14,2.55,0,4.95-1.1,7.63-1.98,9.78-.59,1.45-.99,2.41-.99,3.91,0,2.4,1.95,3.79,3.8,4.57,.12-2.1,.34-4.22,.58-6.42,.37-3.49,.79-7.45,.79-11.84,0-2.18-.16-3.93-.45-5.33-.39,1.22-1.08,2.14-1.89,2.78Z"/>
        <path class="cls-1" d="M22.11,6c8.58,0,13.22,4.48,13.22,16.44,0,17.75-6.23,26.59,7.13,39.95,1,1,3.78,3.76,7.33,3.76,5.45,0,.95-18.52,23.32-25.57,0,0,1.28,2.09,2.56,6.56-1.31,.65-5.13,2.64-4.94,3.55,.07,.31,.57,.43,1.24,.43,1.56,0,4.08-.6,4.52-.7,.96,4.33,1.75,10.16,1.75,17.64-26.1,0-35.96,32.22-30.1,38.08,0,0-2.92,3.97-5.26,8.63,0,0,.94,.56,3.42,.56s7.17-1.31,9.08-3.22c.1-.1,.21-.14,.3-.14,.26,0,.43,.31,.2,.65-6.31,9.54-15.89,2.73-15.89,11.49,0,4.69,2.57,5.29,4.02,5.8,6.09,2.18,11.25,6.39,14.62,11.85,.77,1.27,1.47,2.74,2.15,4.28h0c.08,.17,.17,.34,.23,.52,1.06,2.8,1.7,5.81,1.83,8.97,.15,3.7-.41,7.26-1.57,10.56l-.78,1.99c-3.58,8.17-10.9,14.38-19.87,16.37-1.44,.32-3.5,.69-6.1,.69-1.38,0-2.92-.1-4.59-.38-.25-.04-.5-.09-.75-.13-.21-.04-.41-.07-.63-.11l.02-.02c-9.13-1.92-16.7-8.24-20.3-16.72v.04c-1.62-3.67-1.86-6.26-2.11-8.17-.06-.59-.1-1.19-.13-1.79-.12-2.98,.22-5.88,.97-8.62,.15-.59,.33-1.17,.54-1.75,1.94-5.67,5.64-10.56,10.45-13.98,.51-.36,1.46-.86,2.26-1.21,.35-6.58,6.29-1.68,13.45-8.84,2.37-2.37,6.47-10.19,6.47-19.81,0-21.53-32.49-21.02-32.49-48.31,0-16.39,14.55-19.96,14.55-32.88S10.47,9.71,10.47,9.71c0,0,3.06-3.71,11.64-3.71m1.21,4.96c.8,0,.89-.39,1.26-.39,.46,0,2.17,1.75,2.17,4.31,0,3.11-2.56,3.25-2.56,3.25,.31,1.29,.48,2.72,.48,4.31,0,7.77-2.96,8.93-2.96,13.69,0,7.33,9.74,8.47,9.74,8.47-.1-3.2,.25-6.48,.62-10,.38-3.57,.81-7.61,.81-12.16,0-12.29-5.18-13.99-10.77-13.99-.31,0-.6,0-.89,.02,0,0,.14,2.5,2.1,2.5M22.11,0C11.26,0,6.66,4.91,5.84,5.89c-1.48,1.79-1.87,4.26-.89,6.36,.98,2.09,2.98,3.43,5.28,3.45,.27,.02,1.94,.2,3.43,1.12,1.19,.73,2.56,2.03,2.56,5.61,0,3.78-1.92,6.35-5.31,10.57C6.8,38.14,1.67,44.52,1.67,55.31c0,17.5,11.17,25.66,20.15,32.21,7.88,5.76,12.35,9.34,12.35,16.1,0,8.25-3.68,14.53-4.72,15.57-2.18,2.18-3.95,2.54-5.99,2.95-2.16,.44-6.71,1.36-8.5,6.15-.15,.09-.29,.19-.42,.28-5.87,4.17-10.36,10.18-12.68,16.93-.25,.7-.47,1.43-.67,2.17-.92,3.38-1.31,6.88-1.16,10.41,.03,.71,.08,1.44,.15,2.16,0,.05,.01,.11,.02,.16l.05,.38c.26,2.08,.66,5.22,2.51,9.44,.06,.14,.13,.29,.21,.42,4.4,9.92,13.24,17.2,23.82,19.6,.17,.05,.35,.1,.52,.14,.22,.05,.42,.08,.63,.12l.12,.02c.31,.06,.61,.11,.92,.16,1.84,.3,3.71,.45,5.54,.45,3.27,0,5.79-.47,7.4-.83,10.67-2.37,19.67-9.77,24.07-19.82,.03-.07,.06-.14,.09-.21l.78-1.99c.03-.07,.05-.14,.08-.21,1.44-4.11,2.08-8.41,1.9-12.79-.15-3.73-.9-7.39-2.22-10.86-.1-.27-.21-.52-.31-.73-.01-.02-.02-.05-.03-.07-.93-2.1-1.7-3.63-2.5-4.97-.01-.02-.02-.03-.03-.05-3.96-6.4-9.96-11.37-16.96-14.07,3.59-.66,9.59-1.77,14.12-8.61,1.33-2.01,1.46-4.56,.34-6.64-1.1-2.05-3.23-3.32-5.55-3.32-.52,0-1.04,.06-1.54,.19,0-1.42-.49-2.83-1.46-3.95-.56-1.74,.03-8.75,4.81-16.08,3.59-5.5,10.1-12.06,20.75-12.06,3.31,0,6-2.69,6-6,0-6.9-.64-13.27-1.89-18.93-.14-.62-.37-1.21-.69-1.75,.02-.62-.05-1.26-.23-1.89-1.43-5-2.92-7.57-3.21-8.04-1.11-1.82-3.07-2.87-5.12-2.87-.6,0-1.21,.09-1.8,.28-17.67,5.57-21.56,17.65-23.65,24.14,0,0,0,.01,0,.02-.28-.24-.6-.53-.94-.87-7.81-7.81-7.29-12.77-6.23-22.65,.4-3.78,.86-8.06,.86-13.05C41.33,3.89,30.88,0,22.11,0h0Zm23.92,123.6h0Z"/>
      </g>
      <g>
        <path class="cls-2" d="M10.99,157.29c-.63-.16-1.17-.55-1.59-1.13-2.12,3.27-3.01,6.19-2.23,8.81,3.26,11,12.97,19.13,24.6,20.21-11.11-3.37-19.34-14.95-20.77-27.9Zm-2.28-6.5c-.7-.5-1.3-.97-1.73-1.37-.74,2.74-1.09,5.63-.97,8.62,.02,.6,.07,1.2,.13,1.79,.43-1.76,1.28-3.61,2.49-5.48-.23-1.1-.2-2.35,.07-3.55Zm.55-1.68c.29-.67,.66-1.28,1.1-1.8,.35-.42,.73-.74,1.12-.99,1.06-4.93,3.27-9.32,6.5-12.64-4.82,3.43-8.51,8.31-10.46,13.98,.26,.35,.94,.89,1.74,1.44Zm41.7,25.3c-2.41-.27-5.63-.9-7.03-1.39-1.57-.54-2.96-1.85-3.73-3.51-.32-.68-.61-1.59-.65-2.7-.03-.66,.04-1.39,.23-2.18-8.82-2.69-18.17-6.43-24.67-9.9-.23,.42-.49,.81-.78,1.16-.49,.58-1.04,1-1.61,1.24,.61,5.41,2.49,10.72,5.49,15.34,3.97,6.13,9.38,10.33,15.22,11.65,2.07,.47,4.78,1.05,7.2,.51,8.98-1.99,16.3-8.2,19.88-16.37-.42,.07-.89,.12-1.4,.14-2.05,5.99-6.36,6.2-8.14,6.01Zm11.88-18.69c-.13-3.16-.77-6.17-1.83-8.97-1.31-3.43-5.69-5.86-11.45-7.17-10.66-2.41-24.66,1.57-33.57,9.07,.34,1.37,.24,3-.22,4.48,6.42,3.45,15.75,7.19,24.56,9.87,2.07-4.76,6.04-5.67,9.14-4.89,2.22,.55,3.64,.84,4.68,1.05l1.15,.24c1.47,.34,2.76,1.32,3.54,2.68,.55,.96,1.05,2.49,.71,4.58,1.08-.06,1.61-.24,1.73-.39,1.15-3.29,1.72-6.86,1.57-10.56Zm-5.05,10.95c.36-1.76-.03-2.98-.45-3.73-.54-.94-1.42-1.62-2.43-1.85l-1.1-.23c-1-.2-2.5-.51-4.76-1.07-3.02-.75-5.61,.63-7.04,3.71,1.47,.43,2.92,.82,4.33,1.18,.23-1.1,.28-1.86,.28-1.87,.03-.48,.44-.84,.91-.81,.48,.03,.84,.44,.81,.91,0,.06-.06,.94-.32,2.18,.28,.07,.56,.13,.83,.19,.28,.06,.56,.13,.84,.18,.25-1.22,.41-2.25,.41-2.27,.07-.47,.51-.8,.98-.72,.47,.07,.8,.51,.73,.98-.01,.08-.17,1.12-.43,2.36,.58,.11,1.13,.21,1.65,.3,.19-1.05,.24-1.88,.24-1.9,.02-.48,.43-.84,.91-.82,.48,.02,.84,.43,.82,.9,0,.07-.05,.95-.25,2.07,1.2,.16,2.2,.25,3.04,.29Zm-16.02,2.12c.68,1.46,1.85,2.3,2.73,2.6,1.14,.39,4.15,1.03,6.65,1.3,2.74,.3,4.89-1.22,6.11-4.31-.92-.05-1.9-.16-2.92-.3-.19,.62-.43,1.24-.75,1.79-.24,.41-.76,.56-1.18,.32-.41-.24-.56-.76-.32-1.18,.21-.37,.38-.78,.52-1.21-.54-.09-1.07-.19-1.61-.3-.18,.72-.39,1.4-.61,1.91-.19,.44-.7,.64-1.14,.45-.44-.19-.64-.7-.45-1.14,.18-.41,.35-.96,.51-1.57-.28-.06-.56-.12-.83-.18-.29-.07-.59-.14-.88-.21-.15,.5-.34,1.02-.56,1.55-.19,.44-.69,.65-1.13,.46-.44-.19-.65-.69-.46-1.13,.18-.44,.34-.87,.47-1.29-1.46-.37-2.95-.78-4.47-1.22-.37,1.59-.05,2.84,.33,3.65Zm-28.49-21.55c-.39-.07-1.14-.06-1.9,.76-1.2,1.31-1.77,3.07-1.68,5.25h0c.02,.55,.1,.87,.26,1.31,.28,.79,.95,1.31,1.45,1.4,.59,.11,1.25-.24,1.86-.97,1.35-1.6,1.93-4.53,1.27-6.4-.28-.78-.72-1.26-1.25-1.36Z"/>
        <path class="cls-2" d="M40.16,103.8c0,9.62-4.1,17.44-6.47,19.81-7.35,7.35-13.41,2-13.47,9.37-3.33,3.02-5.73,7.61-6.91,12.85,.07,0,.14,.02,.22,.03,.69,.13,1.28,.52,1.74,1.14,9.33-7.61,23.7-11.6,34.68-9.12,3.49,.79,6.45,2.08,8.69,4.05-3.37-5.45-8.53-9.66-14.62-11.85-1.45-.52-4.02-1.11-4.02-5.81,0-8.76,9.58-1.95,15.89-11.49,.31-.47-.13-.88-.51-.51-1.91,1.91-6.6,3.22-9.08,3.22s-3.42-.57-3.42-.57c2.35-4.67,5.26-8.64,5.26-8.64-5.86-5.86,4-38.08,30.1-38.08,0-7.48-.79-13.31-1.75-17.64-.62,.15-5.54,1.31-5.76,.28-.2-.92,3.62-2.9,4.94-3.55-1.28-4.47-2.56-6.56-2.56-6.56-22.37,7.05-17.87,25.57-23.32,25.57-3.55,0-6.33-2.76-7.33-3.76-13.36-13.36-7.14-22.2-7.14-39.96,0-11.96-4.64-16.44-13.22-16.44s-11.64,3.71-11.64,3.71c0,0,11.75,.38,11.75,12.73S7.66,39.09,7.66,55.49c0,27.29,32.5,26.78,32.5,48.32ZM24.67,22.6c0-1.58-.17-3.02-.48-4.31,0,0,2.56-.13,2.56-3.25,0-2.57-1.71-4.32-2.17-4.32-.37,0-.46,.39-1.26,.39-1.95,0-2.1-2.5-2.1-2.5,.29,0,.59-.02,.89-.02,5.59,0,10.77,1.69,10.77,13.99,0,4.55-.43,8.59-.81,12.16-.38,3.53-.72,6.8-.62,10,0,0-9.74-1.15-9.74-8.48,0-4.76,2.97-5.92,2.97-13.69ZM10.99,157.29c-.63-.16-1.17-.55-1.59-1.13-2.12,3.27-3.01,6.19-2.23,8.81,3.26,11,12.97,19.13,24.6,20.21-11.11-3.37-19.34-14.95-20.77-27.9Zm-2.28-6.5c-.7-.5-1.3-.97-1.73-1.37-.74,2.74-1.09,5.63-.97,8.62,.02,.6,.07,1.2,.13,1.79,.43-1.76,1.28-3.61,2.49-5.48-.23-1.1-.2-2.35,.07-3.55Zm.55-1.68c.29-.67,.66-1.28,1.1-1.8,.35-.42,.73-.74,1.12-.99,1.06-4.93,3.27-9.32,6.5-12.64-4.82,3.43-8.51,8.31-10.46,13.98,.26,.35,.94,.89,1.74,1.44Zm41.7,25.3c-2.41-.27-5.63-.9-7.03-1.39-1.57-.54-2.96-1.85-3.73-3.51-.32-.68-.61-1.59-.65-2.7-.03-.66,.04-1.39,.23-2.18-8.82-2.69-18.17-6.43-24.67-9.9-.23,.42-.49,.81-.78,1.16-.49,.58-1.04,1-1.61,1.24,.61,5.41,2.49,10.72,5.49,15.34,3.97,6.13,9.38,10.33,15.22,11.65,2.07,.47,4.78,1.05,7.2,.51,8.98-1.99,16.3-8.2,19.88-16.37-.42,.07-.89,.12-1.4,.14-2.05,5.99-6.36,6.2-8.14,6.01Zm10.05-27.65c-1.31-3.43-5.69-5.86-11.45-7.17-10.66-2.41-24.66,1.57-33.57,9.07,.34,1.37,.24,3-.22,4.48,6.42,3.45,15.75,7.19,24.56,9.87,2.07-4.76,6.04-5.67,9.14-4.89,2.22,.55,3.64,.84,4.68,1.05l1.15,.24c1.47,.34,2.76,1.32,3.54,2.68,.55,.96,1.05,2.49,.71,4.58,1.08-.06,1.61-.24,1.73-.39,1.15-3.29,1.72-6.86,1.57-10.56-.13-3.16-.77-6.17-1.83-8.97Zm-19.24,22.03c.68,1.46,1.85,2.3,2.73,2.6,1.14,.39,4.15,1.03,6.65,1.3,2.74,.3,4.89-1.22,6.11-4.31-.92-.05-1.9-.16-2.92-.3-.19,.62-.43,1.24-.75,1.79-.24,.41-.76,.56-1.18,.32-.41-.24-.56-.76-.32-1.18,.21-.37,.38-.78,.52-1.21-.54-.09-1.07-.19-1.61-.3-.18,.72-.39,1.4-.61,1.91-.19,.44-.7,.64-1.14,.45-.44-.19-.64-.7-.45-1.14,.18-.41,.35-.96,.51-1.57-.28-.06-.56-.12-.83-.18-.29-.07-.59-.14-.88-.21-.15,.5-.34,1.02-.56,1.55-.19,.44-.69,.65-1.13,.46-.44-.19-.65-.69-.46-1.13,.18-.44,.34-.87,.47-1.29-1.46-.37-2.95-.78-4.47-1.22-.37,1.59-.05,2.84,.33,3.65Zm16.02-2.12c.36-1.76-.03-2.98-.45-3.73-.54-.94-1.42-1.62-2.43-1.85l-1.1-.23c-1-.2-2.5-.51-4.76-1.07-3.02-.75-5.61,.63-7.04,3.71,1.47,.43,2.92,.82,4.33,1.18,.23-1.1,.28-1.86,.28-1.87,.03-.48,.44-.84,.91-.81,.48,.03,.84,.44,.81,.91,0,.06-.06,.94-.32,2.18,.28,.07,.56,.13,.83,.19,.28,.06,.56,.13,.84,.18,.25-1.22,.41-2.25,.41-2.27,.07-.47,.51-.8,.98-.72,.47,.07,.8,.51,.73,.98-.01,.08-.17,1.12-.43,2.36,.58,.11,1.13,.21,1.65,.3,.19-1.05,.24-1.88,.24-1.9,.02-.48,.43-.84,.91-.82,.48,.02,.84,.43,.82,.9,0,.07-.05,.95-.25,2.07,1.2,.16,2.2,.25,3.04,.29Zm-44.51-19.43c-.39-.07-1.14-.06-1.9,.76-1.2,1.31-1.77,3.07-1.68,5.25h0c.02,.55,.1,.87,.26,1.31,.28,.79,.95,1.31,1.45,1.4,.59,.11,1.25-.24,1.86-.97,1.35-1.6,1.93-4.53,1.27-6.4-.28-.78-.72-1.26-1.25-1.36Z"/>
      </g>
    </g>
  </g>
</svg>